<?xml version="1.0" standalone="no"?><!DOCTYPE svg PUBLIC "-//W3C//DTD SVG 1.1//EN" "http://www.w3.org/Graphics/SVG/1.1/DTD/svg11.dtd"><svg class="icon" width="200px" height="200.00px" viewBox="0 0 1024 1024" version="1.1" xmlns="http://www.w3.org/2000/svg"><path d="M336.992 127.68l372.672 372.672c0.064 0.064 0.064 0.16 0.128 0.192 0.064 0.064 0.128 0.064 0.192 0.128 2.752 2.752 4.032 6.304 4.32 9.952 0.032 0.48 0.256 0.896 0.256 1.376 0 0.48-0.192 0.896-0.256 1.376-0.288 3.648-1.568 7.2-4.32 9.952-0.064 0.064-0.128 0.064-0.192 0.128-0.064 0.064-0.064 0.16-0.128 0.192L336.992 896.352c-6.432 6.432-16.704 6.592-22.976 0.32-6.24-6.24-6.112-16.512 0.32-22.976L676.064 512 314.368 150.304c-6.432-6.432-6.592-16.704-0.32-22.976C320.256 121.088 330.56 121.248 336.992 127.68z" fill="#9E9E9E" /></svg>